<mxfile host="Electron" modified="2023-11-14T21:49:49.704Z" agent="Mozilla/5.0 (Macintosh; Intel Mac OS X 10_15_7) AppleWebKit/537.36 (KHTML, like Gecko) draw.io/22.0.3 Chrome/114.0.5735.289 Electron/25.8.4 Safari/537.36" etag="fxP8YDuxlCJ_a2xz4HeH" version="22.0.3" type="device">
  <diagram id="GUxEJdWFkQ5Y1Z3yI3_n" name="dex_agg_chain">
    <mxGraphModel dx="645" dy="308" grid="1" gridSize="10" guides="1" tooltips="1" connect="1" arrows="1" fold="1" page="1" pageScale="1" pageWidth="100" pageHeight="150" math="1" shadow="0">
      <root>
        <mxCell id="0" />
        <mxCell id="1" parent="0" />
        <mxCell id="VxgVBbmApIzxJVaLYmdr-1" style="edgeStyle=orthogonalEdgeStyle;rounded=1;orthogonalLoop=1;jettySize=auto;html=1;entryX=0;entryY=0;entryDx=0;entryDy=13.5;entryPerimeter=0;fillColor=#d80073;strokeColor=#A50040;endArrow=classicThin;endFill=1;arcSize=5;" parent="1" target="VxgVBbmApIzxJVaLYmdr-10" edge="1">
          <mxGeometry relative="1" as="geometry">
            <mxPoint y="80" as="sourcePoint" />
            <Array as="points">
              <mxPoint x="-50" y="80" />
              <mxPoint x="-50" y="17" />
            </Array>
          </mxGeometry>
        </mxCell>
        <mxCell id="VxgVBbmApIzxJVaLYmdr-2" style="edgeStyle=orthogonalEdgeStyle;rounded=1;orthogonalLoop=1;jettySize=auto;html=1;entryX=0;entryY=0.75;entryDx=0;entryDy=0;arcSize=5;endArrow=classicThin;endFill=1;" parent="1" source="VxgVBbmApIzxJVaLYmdr-9" target="VxgVBbmApIzxJVaLYmdr-6" edge="1">
          <mxGeometry relative="1" as="geometry">
            <Array as="points">
              <mxPoint x="-39.97" y="128" />
              <mxPoint x="-39.97" y="88" />
              <mxPoint x="-29.97" y="88" />
              <mxPoint x="-29.97" y="86" />
            </Array>
          </mxGeometry>
        </mxCell>
        <mxCell id="VxgVBbmApIzxJVaLYmdr-3" style="edgeStyle=orthogonalEdgeStyle;rounded=1;orthogonalLoop=1;jettySize=auto;html=1;exitX=1;exitY=0.75;exitDx=0;exitDy=0;entryX=1;entryY=0.5;entryDx=0;entryDy=0;entryPerimeter=0;arcSize=5;endArrow=classicThin;endFill=1;" parent="1" source="VxgVBbmApIzxJVaLYmdr-6" target="VxgVBbmApIzxJVaLYmdr-9" edge="1">
          <mxGeometry relative="1" as="geometry">
            <Array as="points">
              <mxPoint x="80.03" y="86" />
              <mxPoint x="80.03" y="128" />
            </Array>
          </mxGeometry>
        </mxCell>
        <mxCell id="VxgVBbmApIzxJVaLYmdr-4" style="edgeStyle=orthogonalEdgeStyle;rounded=1;orthogonalLoop=1;jettySize=auto;html=1;entryX=0.9;entryY=0.5;entryDx=0;entryDy=0;entryPerimeter=0;exitX=1;exitY=0;exitDx=0;exitDy=25.5;exitPerimeter=0;arcSize=5;endArrow=classicThin;endFill=1;fillColor=#1ba1e2;strokeColor=#006EAF;" parent="1" source="VxgVBbmApIzxJVaLYmdr-10" target="VxgVBbmApIzxJVaLYmdr-6" edge="1">
          <mxGeometry relative="1" as="geometry">
            <Array as="points">
              <mxPoint x="80.03" y="29" />
              <mxPoint x="80.03" y="74" />
              <mxPoint x="36.03" y="74" />
            </Array>
          </mxGeometry>
        </mxCell>
        <mxCell id="VxgVBbmApIzxJVaLYmdr-5" style="edgeStyle=orthogonalEdgeStyle;rounded=1;orthogonalLoop=1;jettySize=auto;html=1;entryX=0;entryY=0;entryDx=0;entryDy=25.5;entryPerimeter=0;arcSize=5;endArrow=classicThin;endFill=1;fillColor=#d80073;strokeColor=#A50040;" parent="1" target="VxgVBbmApIzxJVaLYmdr-10" edge="1">
          <mxGeometry relative="1" as="geometry">
            <mxPoint x="4" y="74" as="sourcePoint" />
            <Array as="points">
              <mxPoint x="-35" y="74" />
              <mxPoint x="-35" y="28" />
              <mxPoint x="-10" y="28" />
            </Array>
          </mxGeometry>
        </mxCell>
        <mxCell id="VxgVBbmApIzxJVaLYmdr-6" value="&lt;font style=&quot;font-size: 10px;&quot;&gt;&lt;br&gt;&lt;font style=&quot;font-size: 10px;&quot;&gt;&lt;br&gt;User&lt;/font&gt;&lt;/font&gt;" style="shape=actor;whiteSpace=wrap;html=1;fontSize=10;fontFamily=Times New Roman;verticalAlign=middle;" parent="1" vertex="1">
          <mxGeometry x="0.030000000000001137" y="48" width="40" height="51.25" as="geometry" />
        </mxCell>
        <mxCell id="VxgVBbmApIzxJVaLYmdr-7" value="&lt;b style=&quot;font-size: 10px;&quot;&gt;ETH&lt;/b&gt;" style="ellipse;whiteSpace=wrap;html=1;aspect=fixed;labelBackgroundColor=none;labelBorderColor=none;fillColor=#eeeeee;strokeColor=#36393d;fontSize=10;fontFamily=Times New Roman;" parent="1" vertex="1">
          <mxGeometry x="-60" y="59.25" width="40" height="40" as="geometry" />
        </mxCell>
        <mxCell id="VxgVBbmApIzxJVaLYmdr-8" value="&lt;b&gt;DAI&lt;/b&gt;" style="ellipse;whiteSpace=wrap;html=1;aspect=fixed;labelBackgroundColor=none;labelBorderColor=none;fillColor=#eeeeee;strokeColor=#36393d;fontSize=10;fontFamily=Times New Roman;" parent="1" vertex="1">
          <mxGeometry x="60.03" y="59.25" width="40" height="40" as="geometry" />
        </mxCell>
        <mxCell id="VxgVBbmApIzxJVaLYmdr-9" value="Uniswap V3&lt;br&gt;Pool" style="shape=cylinder3;whiteSpace=wrap;html=1;boundedLbl=1;backgroundOutline=1;size=7.5;strokeWidth=2;fontFamily=Times New Roman;fontSize=10;fontStyle=0" parent="1" vertex="1">
          <mxGeometry x="-9.969999999999999" y="108" width="60" height="40" as="geometry" />
        </mxCell>
        <mxCell id="VxgVBbmApIzxJVaLYmdr-10" value="Compound&lt;br&gt;Pool" style="shape=cylinder3;whiteSpace=wrap;html=1;boundedLbl=1;backgroundOutline=1;size=7.5;strokeWidth=2;fontFamily=Times New Roman;fontStyle=0;fontSize=10;" parent="1" vertex="1">
          <mxGeometry x="-9.969999999999999" y="3" width="60" height="39" as="geometry" />
        </mxCell>
        <mxCell id="VxgVBbmApIzxJVaLYmdr-11" value="&lt;p style=&quot;line-height: 270%;&quot;&gt;1&lt;/p&gt;" style="ellipse;whiteSpace=wrap;html=1;aspect=fixed;fontSize=7;labelBackgroundColor=none;fontColor=#FFFFFF;fillColor=#000000;align=center;" parent="1" vertex="1">
          <mxGeometry x="-30" y="42" width="10" height="10" as="geometry" />
        </mxCell>
        <mxCell id="VxgVBbmApIzxJVaLYmdr-12" value="&lt;p style=&quot;line-height: 270%;&quot;&gt;2&lt;/p&gt;" style="ellipse;whiteSpace=wrap;html=1;aspect=fixed;fontSize=7;labelBackgroundColor=none;fontColor=#FFFFFF;fillColor=#000000;align=center;" parent="1" vertex="1">
          <mxGeometry x="60.03" y="42" width="10" height="10" as="geometry" />
        </mxCell>
        <mxCell id="VxgVBbmApIzxJVaLYmdr-13" value="&lt;p style=&quot;line-height: 270%;&quot;&gt;3&lt;/p&gt;" style="ellipse;whiteSpace=wrap;html=1;aspect=fixed;fontSize=7;labelBackgroundColor=none;fontColor=#FFFFFF;fillColor=#000000;align=center;" parent="1" vertex="1">
          <mxGeometry x="60.03" y="108" width="10" height="10" as="geometry" />
        </mxCell>
        <mxCell id="VxgVBbmApIzxJVaLYmdr-14" value="&lt;p style=&quot;line-height: 270%;&quot;&gt;4&lt;/p&gt;" style="ellipse;whiteSpace=wrap;html=1;aspect=fixed;fontSize=7;labelBackgroundColor=none;fontColor=#FFFFFF;fillColor=#000000;align=center;" parent="1" vertex="1">
          <mxGeometry x="-30" y="108" width="10" height="10" as="geometry" />
        </mxCell>
        <mxCell id="VxgVBbmApIzxJVaLYmdr-15" value="$$\mathcal{S}_{\textnormal{L}}^{(1)}$$" style="text;html=1;strokeColor=none;fillColor=none;align=center;verticalAlign=middle;whiteSpace=wrap;rounded=0;fontStyle=0;fontSize=10;" parent="1" vertex="1">
          <mxGeometry x="-36" y="42" width="50" height="30" as="geometry" />
        </mxCell>
        <mxCell id="VxgVBbmApIzxJVaLYmdr-16" value="$$\mathcal{S}_{\textnormal{L}}^{(2)}$$" style="text;html=1;strokeColor=none;fillColor=none;align=center;verticalAlign=middle;whiteSpace=wrap;rounded=0;fontStyle=0;fontSize=10;" parent="1" vertex="1">
          <mxGeometry x="35" y="46" width="30" height="22" as="geometry" />
        </mxCell>
        <mxCell id="VxgVBbmApIzxJVaLYmdr-17" value="$$\mathcal{S}_{\textnormal{L}}^{(4)}$$" style="text;html=1;strokeColor=none;fillColor=none;align=center;verticalAlign=middle;whiteSpace=wrap;rounded=0;fontStyle=0;fontSize=10;" parent="1" vertex="1">
          <mxGeometry x="-36" y="88" width="50" height="30" as="geometry" />
        </mxCell>
        <mxCell id="VxgVBbmApIzxJVaLYmdr-18" value="$$\mathcal{S}_{\textnormal{L}}^{(3)}$$" style="text;html=1;strokeColor=none;fillColor=none;align=center;verticalAlign=middle;whiteSpace=wrap;rounded=0;fontStyle=0;fontSize=10;" parent="1" vertex="1">
          <mxGeometry x="30" y="88" width="50" height="30" as="geometry" />
        </mxCell>
        <mxCell id="VxgVBbmApIzxJVaLYmdr-19" value="&lt;p style=&quot;line-height: 270%;&quot;&gt;5&lt;/p&gt;" style="ellipse;whiteSpace=wrap;html=1;aspect=fixed;fontSize=7;labelBackgroundColor=none;fontColor=#FFFFFF;fillColor=#000000;align=center;" parent="1" vertex="1">
          <mxGeometry x="-64" y="43" width="10" height="10" as="geometry" />
        </mxCell>
        <mxCell id="VxgVBbmApIzxJVaLYmdr-20" value="$$\mathcal{S}_{\textnormal{L}}^{(5)}$$" style="text;html=1;strokeColor=none;fillColor=none;align=center;verticalAlign=middle;whiteSpace=wrap;rounded=0;fontStyle=0;fontSize=10;" parent="1" vertex="1">
          <mxGeometry x="-86" y="50" width="26" height="18" as="geometry" />
        </mxCell>
      </root>
    </mxGraphModel>
  </diagram>
</mxfile>
